<?xml version="1.0" encoding="iso-8859-1"?>
<!-- Generator: Adobe Illustrator 19.0.0, SVG Export Plug-In . SVG Version: 6.00 Build 0)  -->
<svg version="1.1" id="Capa_1" xmlns="http://www.w3.org/2000/svg" xmlns:xlink="http://www.w3.org/1999/xlink" x="0px" y="0px"
	 viewBox="0 0 511.997 511.997" style="enable-background:new 0 0 511.997 511.997;" xml:space="preserve">
<path style="fill:#495059;" d="M414.662,424.828l-59.037,9.582l8.099,49.9c0.819,5.046,5.574,8.473,10.62,7.654l40.763-6.616
	c5.046-0.819,8.473-5.574,7.654-10.62L414.662,424.828z"/>
<path style="fill:#BDC0C3;" d="M328.959,377.017l-10.28-63.336c-1.655-10.197-5.278-19.804-10.765-28.554l-26.042-41.52
	c-7.479-11.925-12.414-25.015-14.669-38.906L245.79,72.775c-1.234-7.603,3.929-14.767,11.532-16.001
	c7.603-1.234,14.767,3.929,16.001,11.532l21.413,131.926c1.655,10.195,5.277,19.802,10.766,28.554l26.041,41.519
	c7.478,11.922,12.414,25.012,14.669,38.906l10.28,63.336L328.959,377.017z"/>
<path style="opacity:0.1;enable-background:new    ;" d="M282.347,203.78v-79.872l-9.025-55.602
	c-1.234-7.603-8.398-12.766-16.001-11.532s-12.766,8.398-11.532,16.001l21.413,131.926c1.766,10.877,5.182,21.26,10.169,30.98
	C280.671,225.383,282.347,214.691,282.347,203.78z"/>
<path style="opacity:0.1;enable-background:new    ;" d="M273.322,68.307c-1.234-7.603-8.398-12.766-16.001-11.532
	s-12.766,8.398-11.532,16.001l6.461,39.804c9.361-0.23,18.709-0.686,28.034-1.375L273.322,68.307z"/>
<path style="fill:#BDC0C3;" d="M421.807,361.947l-10.28-63.336c-1.655-10.197-1.257-20.457,1.181-30.493l11.573-47.625
	c3.323-13.678,3.865-27.657,1.61-41.548L404.479,47.018c-1.234-7.603-8.398-12.766-16-11.532
	c-7.603,1.234-12.766,8.398-11.532,16.001l21.413,131.926c1.655,10.195,1.257,20.455-1.182,30.494l-11.572,47.624
	c-3.323,13.675-3.865,27.654-1.61,41.548l10.28,63.336L421.807,361.947z"/>
<path style="opacity:0.1;enable-background:new    ;" d="M388.479,35.487c-7.603,1.234-12.766,8.398-11.532,16.001l6.88,42.391
	c9.052-2.387,18.05-4.997,26.987-7.83l-6.335-39.03C403.245,39.416,396.081,34.253,388.479,35.487z"/>
<g transform="matrix(0.9871 -0.1602 0.1602 0.9871 -49.34 63.68)">
	<rect x="351.1" y="305.731" style="fill:#BDC0C3;" width="38.28" height="64.17"/>
	<rect x="351.1" y="305.731" style="opacity:0.15;enable-background:new    ;" width="38.28" height="64.17"/>
</g>
<path style="fill:#76B7EB;" d="M433.277,426.151l-13.706,12.863c-1.839,1.726-4.151,2.864-6.641,3.268l-50.142,8.138
	c-2.49,0.404-5.043,0.056-7.333-0.999l-23.195-10.689c-7.04-3.245-12.006-9.778-13.248-17.43l-5.146-31.705
	c-0.885-5.45,2.816-10.586,8.267-11.47l106.5-17.286c5.45-0.885,10.586,2.817,11.47,8.267l4.066,25.05
	C446.087,405.969,442.004,417.961,433.277,426.151z"/>
<path style="opacity:0.1;enable-background:new    ;" d="M362.789,450.419l43.268-7.023c-31.191-11.577-51.171-41.06-57.044-69.634
	l-26.879,4.363c-5.45,0.885-9.152,6.02-8.267,11.47l5.146,31.705c1.242,7.652,6.208,14.185,13.248,17.43l23.195,10.689
	C357.746,450.475,360.299,450.823,362.789,450.419z"/>
<path style="fill:#76B7EB;" d="M427.524,63.207L427.524,63.207c-63.734,22.39-130.933,33.297-198.475,32.215l0,0
	c-6.548-0.105-12.08-4.888-13.129-11.352l-4.776-29.427c-1.349-8.31,5.144-15.819,13.562-15.684l0,0
	c64.345,1.031,128.363-9.36,189.079-30.689l0,0c7.943-2.791,16.478,2.279,17.827,10.59l4.776,29.427
	C437.437,54.75,433.702,61.037,427.524,63.207z"/>
<path style="opacity:0.1;enable-background:new    ;" d="M290.083,91.874c4.145-0.645,8.284-1.336,12.417-2.075l0,0
	c6.153,0,11.14-4.988,11.14-11.141v-31.98c0-5.673-3.461-10.401-8.251-12.438c-26.69,3.561-53.658,5.151-80.684,4.718l0,0
	c-8.418-0.135-14.911,7.374-13.562,15.684l4.776,29.427c1.049,6.464,6.581,11.247,13.129,11.352l0,0
	c19.092,0.306,38.157-0.348,57.123-1.946C287.303,92.666,288.629,92.1,290.083,91.874z"/>
<path style="fill:#495059;" d="M208.944,444.688h-59.809v50.553c0,5.112,4.144,9.257,9.257,9.257h41.296
	c5.112,0,9.257-4.144,9.257-9.257v-50.553H208.944z"/>
<path style="fill:#BDC0C3;" d="M132.007,383.764v-64.165c0-10.33-2.037-20.394-6.052-29.91l-19.054-45.156
	c-5.471-12.969-8.246-26.68-8.246-40.753V70.127c0-7.702,6.244-13.946,13.946-13.946s13.946,6.244,13.946,13.946V203.78
	c0,10.328,2.037,20.392,6.052,29.911l19.053,45.155c5.471,12.966,8.246,26.678,8.246,40.754v64.165h-27.891V383.764z"/>
<path style="opacity:0.1;enable-background:new    ;" d="M98.656,70.127v41.549c9.276,1.319,18.576,2.406,27.893,3.266V70.127
	c0-6.074-3.89-11.227-9.309-13.14c-2.03-0.232-4.059-0.476-6.087-0.731C104.132,56.982,98.656,62.915,98.656,70.127z"/>
<path style="fill:#BDC0C3;" d="M226.071,383.764v-64.165c0-10.33,2.037-20.394,6.052-29.91l19.054-45.156
	c5.471-12.969,8.246-26.68,8.246-40.753V70.127c0-7.702-6.244-13.946-13.946-13.946s-13.946,6.244-13.946,13.946V203.78
	c0,10.328-2.036,20.392-6.053,29.911l-19.053,45.155c-5.471,12.966-8.246,26.678-8.246,40.754v64.165h27.892V383.764z"/>
<path style="opacity:0.1;enable-background:new    ;" d="M259.422,111.677v-41.55c0-7.213-5.476-13.145-12.497-13.871
	c-2.028,0.255-4.057,0.499-6.087,0.731c-5.419,1.913-9.309,7.066-9.309,13.14v44.815
	C240.846,114.083,250.146,112.995,259.422,111.677z"/>
<rect x="159.901" y="319.6" style="fill:#BDC0C3;" width="38.28" height="64.17"/>
<rect x="159.901" y="319.6" style="opacity:0.15;enable-background:new    ;" width="38.28" height="64.17"/>
<path style="fill:#76B7EB;" d="M227.107,448.977l-15.59,10.5c-2.092,1.409-4.556,2.161-7.078,2.161h-50.798
	c-2.522,0-4.987-0.753-7.079-2.161l-21.183-14.267c-6.429-4.331-10.285-11.575-10.285-19.327v-32.12
	c0-5.522,4.476-9.998,9.998-9.998h107.894c5.522,0,9.998,4.476,9.998,9.998v25.378C242.984,431.107,237.033,442.29,227.107,448.977z
	"/>
<path style="opacity:0.1;enable-background:new    ;" d="M115.094,393.762v32.12c0,7.752,3.855,14.996,10.285,19.327l21.183,14.267
	c2.092,1.409,4.557,2.161,7.079,2.161h37.598c-31.201-16.612-40.301-55.966-41.911-77.874h-24.236
	C119.571,383.764,115.094,388.24,115.094,393.762z"/>
<path style="fill:#76B7EB;" d="M279.575,89.799L279.575,89.799c-66.497,11.889-134.575,11.889-201.072,0l0,0
	c-6.447-1.153-11.14-6.76-11.14-13.309V46.678c0-8.419,7.612-14.791,15.9-13.309l0,0c63.349,11.326,128.205,11.326,191.554,0l0,0
	c8.288-1.482,15.9,4.89,15.9,13.309V76.49C290.716,83.039,286.022,88.646,279.575,89.799z"/>
<path d="M451.573,392.954l-4.065-25.05c-0.749-4.614-3.25-8.659-7.042-11.392c-3.633-2.619-8.037-3.71-12.452-3.142l-9.083-55.961
	c-1.493-9.204-1.135-18.463,1.066-27.52l11.573-47.626c3.561-14.657,4.142-29.636,1.726-44.52l-16.71-102.95
	c4.488-1.455,8.967-2.944,13.423-4.51c9.619-3.379,15.415-13.135,13.782-23.2l-4.776-29.426c-1-6.159-4.649-11.518-10.013-14.705
	c-5.365-3.186-11.818-3.827-17.703-1.76c-5.436,1.91-10.98,3.757-16.48,5.491c-3.95,1.246-6.143,5.458-4.896,9.409
	c1.245,3.949,5.454,6.141,9.408,4.897c5.649-1.782,11.349-3.681,16.94-5.644c2.312-0.812,4.166-0.032,5.069,0.504
	c0.902,0.536,2.476,1.796,2.867,4.211l4.776,29.426c0.468,2.882-1.192,5.677-3.946,6.644
	c-41.675,14.64-84.793,24.277-128.612,28.822c1.145-2.602,1.79-5.464,1.79-8.463V46.678c0-1.336-0.133-2.653-0.378-3.94
	c22.571-2.657,45.1-6.718,67.12-12.123c4.022-0.987,6.483-5.049,5.496-9.071c-0.988-4.024-5.051-6.485-9.072-5.496
	c-24.018,5.895-48.658,10.141-73.283,12.664c-4.344-2.642-9.512-3.636-14.604-2.726c-13.043,2.332-26.124,4.171-39.228,5.533
	c-3.439,0.007-6.54-0.013-9.443-0.06c-2.9-0.04-5.708,0.502-8.369,1.611c-43.988,3.091-88.147,0.734-131.874-7.084
	c-6.142-1.099-12.408,0.568-17.191,4.573c-4.784,4.004-7.528,9.879-7.528,16.119V76.49c0,10.195,7.284,18.897,17.32,20.692
	c4.653,0.832,9.311,1.601,13.973,2.318v104.28c0,15.078,2.973,29.77,8.837,43.669l19.053,45.156
	c3.624,8.588,5.462,17.67,5.462,26.994v10.495c0,4.142,3.357,7.5,7.5,7.5c4.143,0,7.5-3.358,7.5-7.5v-10.495
	c0-11.337-2.234-22.381-6.642-32.825l-19.053-45.155c-5.081-12.044-7.657-24.775-7.657-37.839V101.606
	c4.295,0.547,8.593,1.046,12.894,1.496V203.78c0,11.335,2.234,22.379,6.642,32.827l19.053,45.155
	c5.08,12.038,7.656,24.768,7.656,37.837v56.665h-12.893v-11.939c0-4.142-3.357-7.5-7.5-7.5c-4.143,0-7.5,3.358-7.5,7.5v11.968
	c-9.376,0.312-16.913,8.017-16.913,17.468v32.121c0,10.263,5.082,19.813,13.596,25.547l20.444,13.77v30.041
	c0,9.24,7.517,16.757,16.757,16.757h41.296c9.24,0,16.757-7.517,16.757-16.757v-30.04l14.853-10.004
	c12.015-8.092,19.188-21.571,19.188-36.057v-25.377c0-9.451-7.537-17.156-16.913-17.468v-56.695c0-9.321,1.838-18.403,5.462-26.994
	l19.054-45.156c3.009-7.132,5.251-14.474,6.726-21.97c2.732,7.703,6.305,15.097,10.705,22.113l26.042,41.52
	c4.953,7.898,8.223,16.569,9.716,25.771l9.083,55.962c-9.204,1.81-15.409,10.623-13.897,19.953l5.147,31.705
	c1.645,10.131,8.191,18.744,17.513,23.039l22.386,10.316l4.814,29.652c0.717,4.418,3.111,8.293,6.742,10.91
	c2.885,2.079,6.275,3.167,9.763,3.167c0.902,0,1.812-0.073,2.72-0.22l40.764-6.617c4.418-0.717,8.292-3.112,10.908-6.743
	c2.617-3.631,3.663-8.064,2.946-12.482l-4.813-29.653l13.058-12.254v-0.001C448.972,421.707,453.893,407.253,451.573,392.954z
	 M402.116,79.274l16.372,100.872c2.094,12.896,1.591,25.876-1.495,38.575l-11.573,47.626c-2.676,11.014-3.112,22.273-1.297,33.465
	l9.079,55.933l-12.726,2.065l-9.079-55.933c-2.094-12.899-1.591-25.878,1.495-38.575l11.572-47.625
	c2.677-11.017,3.113-22.276,1.298-33.466l-16.131-99.388C393.805,81.691,397.965,80.501,402.116,79.274z M375.042,86.566
	l15.915,98.049c1.493,9.202,1.135,18.462-1.067,27.521l-11.572,47.624c-2.968,12.213-3.858,24.652-2.676,37.076l-23.48,3.811
	c-2.808-12.159-7.586-23.678-14.266-34.327l-26.041-41.519c-4.953-7.898-8.223-16.569-9.717-25.771l-15.916-98.061
	C316.193,98.478,345.873,93.667,375.042,86.566z M385.67,360.214l-22.977,3.729l-7.877-48.53l22.977-3.729L385.67,360.214z
	 M139.511,230.776c-3.624-8.592-5.462-17.674-5.462-26.996v-99.299c14.983,1.174,29.987,1.763,44.99,1.763s30.007-0.589,44.99-1.764
	v99.299c0,9.32-1.838,18.402-5.463,26.995l-19.053,45.154c-4.887,11.58-7.758,23.716-8.581,36.169h-23.788
	c-0.823-12.454-3.694-24.59-8.581-36.169L139.511,230.776z M190.678,327.099v49.165H167.4v-49.165H190.678z M201.444,495.241
	c0,0.969-0.788,1.757-1.757,1.757h-41.296c-0.969,0-1.757-0.788-1.757-1.757v-26.103h44.81V495.241z M235.484,393.762v25.377
	c0,9.488-4.698,18.316-12.566,23.616l-15.591,10.501c-0.856,0.577-1.855,0.882-2.889,0.882H153.64c-1.033,0-2.031-0.305-2.889-0.882
	l-21.183-14.267c-4.367-2.941-6.975-7.841-6.975-13.106v-32.121c0-1.377,1.121-2.498,2.498-2.498h107.894
	C234.363,391.264,235.484,392.385,235.484,393.762z M251.922,203.78c0,13.066-2.576,25.796-7.656,37.838l-19.054,45.156
	c-4.407,10.446-6.642,21.49-6.642,32.825v56.665h-12.893v-56.665c0-13.069,2.576-25.799,7.656-37.838l19.053-45.155
	c4.408-10.448,6.643-21.492,6.643-32.826V103.102c4.3-0.45,8.598-0.949,12.893-1.496V203.78z M231.115,88.812
	c-0.209,0.011-0.415,0.03-0.62,0.058c-34.261,3.155-68.651,3.155-102.913,0c-0.204-0.028-0.411-0.047-0.62-0.058
	c-15.749-1.468-31.471-3.595-47.14-6.396c-2.875-0.514-4.961-3.006-4.961-5.926V46.678c0-2.447,1.351-3.943,2.156-4.617
	c0.676-0.566,1.991-1.409,3.821-1.409c0.349,0,0.717,0.031,1.102,0.1c64.431,11.52,129.766,11.52,194.194,0
	c2.345-0.417,4.023,0.58,4.852,1.254c0.061,0.055,0.125,0.106,0.187,0.16c0.813,0.714,2.041,2.175,2.041,4.513V76.49
	c0,2.92-2.086,5.412-4.961,5.926C262.586,85.218,246.864,87.344,231.115,88.812z M314.267,281.143l-26.042-41.52
	c-6.943-11.073-11.526-23.226-13.619-36.123l-7.684-47.34v-53.907c1.426-0.071,2.853-0.129,4.277-0.211l16.132,99.393
	c1.817,11.19,5.793,21.733,11.816,31.337l26.041,41.519c6.943,11.071,11.526,23.225,13.619,36.123l9.079,55.933l-12.726,2.065
	l-9.079-55.933C324.266,301.29,320.29,290.747,314.267,281.143z M415.049,477.238c-0.194,0.269-0.55,0.61-1.143,0.707l-40.763,6.616
	c-0.591,0.098-1.04-0.114-1.31-0.309c-0.268-0.194-0.61-0.55-0.706-1.144l-4.183-25.766l44.23-7.179l4.182,25.767
	C415.455,476.524,415.244,476.969,415.049,477.238z M428.146,420.681l-13.707,12.863c-0.754,0.707-1.69,1.168-2.71,1.333
	l-50.143,8.139c-1.023,0.164-2.055,0.024-2.992-0.408L335.4,431.92c-4.782-2.204-8.141-6.623-8.984-11.82l-5.146-31.704
	c-0.221-1.36,0.706-2.646,2.065-2.867l6.826-1.108l0,0l0,0l99.674-16.178c0.142-0.023,0.278-0.034,0.407-0.034
	c0.683,0,1.189,0.283,1.453,0.473c0.313,0.226,0.861,0.738,1.005,1.626l4.065,25.05C438.286,404.722,435.063,414.19,428.146,420.681
	z"/>
<g>
</g>
<g>
</g>
<g>
</g>
<g>
</g>
<g>
</g>
<g>
</g>
<g>
</g>
<g>
</g>
<g>
</g>
<g>
</g>
<g>
</g>
<g>
</g>
<g>
</g>
<g>
</g>
<g>
</g>
</svg>
