<svg xmlns="http://www.w3.org/2000/svg" version="1.1" xmlns:xlink="http://www.w3.org/1999/xlink" xmlns:svgjs="http://svgjs.com/svgjs" width="512" height="512" x="0" y="0" viewBox="0 0 64 64" style="enable-background:new 0 0 512 512" xml:space="preserve"><g><path xmlns="http://www.w3.org/2000/svg" d="m59 41v-36a2 2 0 0 0 -2-2h-50a2 2 0 0 0 -2 2v36z" fill="#C9EFFF" data-original="#c9efff"></path><path xmlns="http://www.w3.org/2000/svg" d="m49.3 29.5773a13.6994 13.6994 0 0 0 1.7-6.5773v-8.3741a21.1724 21.1724 0 0 0 -2.1584-9.2967 1.5 1.5 0 0 0 -2.0729-.6392l-2.6046 1.4547a11.16 11.16 0 0 0 -3.8655 3.22 16.562 16.562 0 0 0 -9.5972 0 11.16 11.16 0 0 0 -3.8655-3.2195l-2.6046-1.4552a1.5 1.5 0 0 0 -2.0729.6389 21.1724 21.1724 0 0 0 -2.1584 9.297v8.3741a13.699 13.699 0 0 0 1.7 6.5767 14.3715 14.3715 0 0 0 -1.6142 2.9233h-1.3558a5.23 5.23 0 0 1 -3.211-9.3576 11.2914 11.2914 0 0 0 2.6043-15.0387 3.5 3.5 0 1 0 -5.9047 3.76 4.32 4.32 0 0 1 -.9966 5.7525 12.23 12.23 0 0 0 7.508 21.8838h.27v1.5h33v-3a14.52 14.52 0 0 0 -2.7-8.4227z" fill="#AFE6FA" data-original="#afe6fa"></path><path xmlns="http://www.w3.org/2000/svg" d="m38 55h-37v5a2 2 0 0 0 2 2h58a2 2 0 0 0 2-2v-5z" fill="#696E82" data-original="#696e82"></path><path xmlns="http://www.w3.org/2000/svg" d="m27 55 2 4h6l2-4z" fill="#5B6172" data-original="#5b6172"></path><path xmlns="http://www.w3.org/2000/svg" d="m59 41h-54l-4 14h62z" fill="#7E849B" data-original="#7e849b"></path><path xmlns="http://www.w3.org/2000/svg" d="m22 38h-3.27a10.73 10.73 0 0 1 -6.5869-19.2 5.8134 5.8134 0 0 0 1.3408-7.7422 2 2 0 1 1 3.374-2.1484 9.7972 9.7972 0 0 1 -2.2593 13.0486 6.73 6.73 0 0 0 4.1314 12.042h3.27a2 2 0 0 1 0 4z" fill="#F8FAFF" data-original="#f8faff"></path><path xmlns="http://www.w3.org/2000/svg" d="m24 36a2 2 0 0 0 -2-2h-2.4261a14.4313 14.4313 0 0 0 -.5739 4h3a2 2 0 0 0 2-2z" fill="#E7EDFA" data-original="#e7edfa"></path><g xmlns="http://www.w3.org/2000/svg" fill="#F8FAFF"><rect height="26" rx="13" transform="matrix(-1 0 0 -1 71 76)" width="30" x="20.5" y="25" fill="#F8FAFF" data-original="#f8faff"></rect><path d="m39.3 42.59-3.8 2.41v6h5a10 10 0 0 0 10-10v-3" fill="#F8FAFF" data-original="#f8faff"></path><path d="m31.7 42.59 3.8 2.41v6h-5a10 10 0 0 1 -10-10v-3" fill="#F8FAFF" data-original="#f8faff"></path></g><path xmlns="http://www.w3.org/2000/svg" d="m37.5 25h-4a12.98 12.98 0 0 0 -10.9295 5.978 16.077 16.077 0 0 0 25.859 0 12.98 12.98 0 0 0 -10.9295-5.978z" fill="#E7EDFA" data-original="#e7edfa"></path><path xmlns="http://www.w3.org/2000/svg" d="m21.5 14.6259a19.5926 19.5926 0 0 1 2-8.6259l2.6334 1.4705a9.6924 9.6924 0 0 1 3.9729 3.686 15.0082 15.0082 0 0 1 10.7874 0 9.6924 9.6924 0 0 1 3.9729-3.686l2.6334-1.4705a19.5926 19.5926 0 0 1 2 8.6259v8.3741c0 7.18-6.2681 13-14 13s-14-5.82-14-13z" fill="#F8FAFF" data-original="#f8faff"></path><path xmlns="http://www.w3.org/2000/svg" d="m63.7212 54.7939-3.9712-13.8991v-35.8948a2.7528 2.7528 0 0 0 -2.75-2.75h-50a2.7528 2.7528 0 0 0 -2.75 2.75v35.8948l-3.9712 13.8991a1.4414 1.4414 0 0 0 -.0288.2061v5a2.7528 2.7528 0 0 0 2.75 2.75h58a2.7528 2.7528 0 0 0 2.75-2.75v-5a1.4414 1.4414 0 0 0 -.0288-.2061zm-61.7268-.5439 3.5715-12.5h14.2221a10.6977 10.6977 0 0 0 2.8775 6.5877.7445.7445 0 0 0 .3345 1.4123h1.2776a10.68 10.68 0 0 0 6.2224 2h10a10.68 10.68 0 0 0 6.2224-2h1.2776a.7445.7445 0 0 0 .3345-1.4123 10.6977 10.6977 0 0 0 2.8775-6.5877h7.2221l3.5715 12.5zm33.7922 1.5-1.25 2.5h-5.0732l-1.25-2.5zm-21.67-45.0957a1.2512 1.2512 0 0 1 .3834-1.7256 1.25 1.25 0 0 1 1.7256.3828 9.0514 9.0514 0 0 1 -2.0864 12.0547 7.4791 7.4791 0 0 0 4.5908 13.3838h1.4212a13.7193 13.7193 0 0 0 -.3683 2.5h-1.0529a9.98 9.98 0 0 1 -6.1265-17.8584 6.5611 6.5611 0 0 0 1.5132-8.7373zm21.3834 24.5957c-7.3062 0-13.25-5.4951-13.25-12.25v-8.374a19.0217 19.0217 0 0 1 1.5859-7.5791l1.962 1.0947a8.94 8.94 0 0 1 3.666 3.4014.7512.7512 0 0 0 .914.3125 14.3359 14.3359 0 0 1 10.2442 0 .7512.7512 0 0 0 .914-.3125 8.9778 8.9778 0 0 1 3.6963-3.417l1.9317-1.0791a19.03 19.03 0 0 1 1.5859 7.5791v8.374c0 6.7549-5.9438 12.25-13.25 12.25zm0 1.5a15.0737 15.0737 0 0 0 12.012-5.7989 12.2619 12.2619 0 0 1 2.238 7.0489v3a9.26 9.26 0 0 1 -9.25 9.25h-4.25v-4.8379l3.4517-2.1885a.75.75 0 0 0 -.8038-1.2675l-3.3979 2.1552-3.3979-2.1552a.75.75 0 0 0 -.8038 1.2675l3.4517 2.1885v4.8379h-4.25a9.26 9.26 0 0 1 -9.25-9.25v-3a12.2619 12.2619 0 0 1 2.238-7.0489 15.0737 15.0737 0 0 0 12.012 5.7989zm-28.5-33h50a1.2511 1.2511 0 0 1 1.25 1.25v35.25h-7v-2.25a13.757 13.757 0 0 0 -2.847-8.3528 12.9423 12.9423 0 0 0 1.847-6.6472v-8.374a20.4042 20.4042 0 0 0 -2.0791-8.961.7505.7505 0 0 0 -1.0366-.32l-2.6031 1.455a10.4248 10.4248 0 0 0 -3.9443 3.4463 15.86 15.86 0 0 0 -10.1738 0 10.3787 10.3787 0 0 0 -3.9141-3.4309l-2.6333-1.4707a.7505.7505 0 0 0 -1.0366.32 20.4042 20.4042 0 0 0 -2.0791 8.9613v8.374a12.9423 12.9423 0 0 0 1.847 6.6472 13.7394 13.7394 0 0 0 -1.9948 3.6028h-1.8722a5.98 5.98 0 0 1 -3.6709-10.7 10.5449 10.5449 0 0 0 2.4316-14.0441 2.75 2.75 0 1 0 -4.64 2.9541 5.0674 5.0674 0 0 1 -1.1685 6.748 11.48 11.48 0 0 0 7.0478 20.542h1.02v1.5h-14v-35.25a1.2511 1.2511 0 0 1 1.25-1.25zm55.25 56.25a1.2511 1.2511 0 0 1 -1.25 1.25h-58a1.2511 1.2511 0 0 1 -1.25-1.25v-4.25h24.7866l1.7925 3.585a.749.749 0 0 0 .6709.415h6a.749.749 0 0 0 .6709-.415l1.7925-3.585h24.7866z" fill="#000000" data-original="#000000"></path><path xmlns="http://www.w3.org/2000/svg" d="m11.5 44.25h-2a.75.75 0 0 0 0 1.5h2a.75.75 0 0 0 0-1.5z" fill="#000000" data-original="#000000"></path><path xmlns="http://www.w3.org/2000/svg" d="m15.5 45.75h2a.75.75 0 0 0 0-1.5h-2a.75.75 0 0 0 0 1.5z" fill="#000000" data-original="#000000"></path><path xmlns="http://www.w3.org/2000/svg" d="m52.5 45.75h2a.75.75 0 0 0 0-1.5h-2a.75.75 0 0 0 0 1.5z" fill="#000000" data-original="#000000"></path><path xmlns="http://www.w3.org/2000/svg" d="m11.5 48.25h-3a.75.75 0 0 0 0 1.5h3a.75.75 0 0 0 0-1.5z" fill="#000000" data-original="#000000"></path><path xmlns="http://www.w3.org/2000/svg" d="m18.5 48.25h-3a.75.75 0 0 0 0 1.5h3a.75.75 0 0 0 0-1.5z" fill="#000000" data-original="#000000"></path><path xmlns="http://www.w3.org/2000/svg" d="m55.5 48.25h-3a.75.75 0 0 0 0 1.5h3a.75.75 0 0 0 0-1.5z" fill="#000000" data-original="#000000"></path><circle xmlns="http://www.w3.org/2000/svg" cx="29" cy="20.5" r="1.5" fill="#000000" data-original="#000000"></circle><circle xmlns="http://www.w3.org/2000/svg" cx="42" cy="20.5" r="1.5" fill="#000000" data-original="#000000"></circle><path xmlns="http://www.w3.org/2000/svg" d="m38.5 25.6709a.75.75 0 0 0 -.75.75.83.83 0 0 1 -.8291.8291.8128.8128 0 0 1 -.7363-.4648.75.75 0 0 0 -.6763-.4346h-.0039a.75.75 0 0 0 -.6768.4267.829.829 0 0 1 -1.5776-.3564.75.75 0 0 0 -1.5 0 2.3273 2.3273 0 0 0 3.751 1.8428 2.3258 2.3258 0 0 0 3.749-1.8428.75.75 0 0 0 -.75-.75z" fill="#000000" data-original="#000000"></path></g></svg>