<svg xmlns="http://www.w3.org/2000/svg" version="1.1" xmlns:xlink="http://www.w3.org/1999/xlink" xmlns:svgjs="http://svgjs.com/svgjs" x="0" y="0" viewBox="0 0 512 512" style="enable-background:new 0 0 512 512" xml:space="preserve"><g><path xmlns="http://www.w3.org/2000/svg" d="m463.015 285.194c-.304-2.779.761-5.594 2.98-7.295 2.295-1.76 4.505-3.682 6.606-5.783s4.023-4.311 5.783-6.606c1.702-2.219 4.516-3.285 7.295-2.98l2.944.322c3.44.377 6.69-1.513 8.187-4.633 2.053-4.278 3.768-8.785 5.04-13.536 1.273-4.752 2.042-9.512 2.404-14.244.263-3.45-1.606-6.712-4.774-8.106l-2.905-1.278c-2.626-1.155-4.33-3.638-4.723-6.48-.766-5.544-2.217-11.007-4.351-16.262-1.078-2.655-.845-5.655.85-7.966l1.873-2.555c2.047-2.791 2.035-6.55.082-9.407-2.679-3.917-5.725-7.655-9.203-11.133s-7.216-6.525-11.133-9.203c-2.857-1.954-6.616-1.965-9.407.082l-2.555 1.873c-2.311 1.695-5.311 1.929-7.966.85-5.255-2.134-10.718-3.585-16.262-4.351-2.842-.393-5.325-2.098-6.48-4.723l-1.278-2.905c-1.394-3.168-4.655-5.037-8.106-4.774-4.732.362-9.492 1.13-14.244 2.404-4.751 1.273-9.258 2.987-13.536 5.04-3.12 1.497-5.01 4.747-4.633 8.187l.322 2.944c.305 2.779-.761 5.594-2.98 7.295-2.295 1.76-4.505 3.682-6.606 5.783s-4.023 4.311-5.783 6.606c-1.701 2.218-4.516 3.284-7.295 2.98l-2.944-.323c-3.44-.377-6.69 1.513-8.187 4.633-2.053 4.278-3.767 8.785-5.041 13.537-1.273 4.751-2.042 9.512-2.403 14.243-.264 3.451 1.606 6.712 4.774 8.106l2.904 1.278c2.626 1.155 4.33 3.638 4.723 6.48.766 5.544 2.218 11.007 4.351 16.263 1.078 2.655.845 5.655-.85 7.966l-1.873 2.555c-2.046 2.79-2.035 6.55-.081 9.406 2.678 3.917 5.725 7.655 9.203 11.133s7.216 6.525 11.133 9.203c2.857 1.954 6.616 1.965 9.406-.081l2.555-1.873c2.31-1.695 5.311-1.928 7.966-.85 5.256 2.134 10.718 3.585 16.263 4.351 2.842.393 5.325 2.097 6.48 4.723l1.278 2.904c1.394 3.168 4.655 5.038 8.106 4.774 4.731-.361 9.492-1.13 14.243-2.403 4.752-1.273 9.259-2.988 13.537-5.041 3.12-1.497 5.01-4.747 4.633-8.187zm-61.268-38.585c-12.522-12.522-12.522-32.824 0-45.346s32.824-12.522 45.346 0 12.522 32.824 0 45.346c-12.521 12.521-32.824 12.522-45.346 0z" fill="#dad8db" data-original="#dad8db"/><path xmlns="http://www.w3.org/2000/svg" d="m472.6 272.115-4.281-4.281c-5.303-5.303-5.951-13.41-2.204-19.907 5.746-9.963 8.022-22.179 5.181-34.998-3.919-17.682-18.188-31.951-35.87-35.87-12.819-2.841-25.034-.564-34.998 5.181-6.497 3.747-14.604 3.099-19.907-2.204l-4.281-4.281c-2.1 2.101-4.023 4.311-5.783 6.606-1.701 2.218-4.515 3.284-7.295 2.98l-2.944-.323c-3.44-.377-6.69 1.513-8.187 4.633-2.053 4.278-3.767 8.785-5.041 13.537-1.273 4.751-2.042 9.512-2.403 14.243-.264 3.451 1.606 6.712 4.774 8.106l2.904 1.277c2.625 1.154 4.328 3.635 4.723 6.475.777 5.596 2.282 11.076 4.374 16.323 1.053 2.642.811 5.616-.872 7.911l-1.873 2.555c-2.046 2.79-2.035 6.55-.081 9.407 2.678 3.917 5.724 7.655 9.203 11.133 3.478 3.478 7.216 6.524 11.133 9.203 2.857 1.954 6.616 1.965 9.407-.081l2.555-1.873c2.294-1.683 5.268-1.925 7.909-.873 5.249 2.091 10.729 3.598 16.326 4.375 2.839.394 5.32 2.098 6.474 4.723l1.278 2.904c1.393 3.168 4.655 5.037 8.106 4.774 4.731-.361 9.492-1.13 14.243-2.403 4.752-1.274 9.259-2.987 13.537-5.04 3.12-1.497 5.01-4.747 4.633-8.187l-.322-2.944c-.305-2.78.761-5.594 2.98-7.295 2.292-1.762 4.501-3.685 6.602-5.786zm-25.507-70.853c12.522 12.522 12.522 32.824 0 45.346s-32.824 12.522-45.346 0-12.522-32.824 0-45.346c12.523-12.522 32.824-12.522 45.346 0z" fill="#c8c5c9" data-original="#c8c5c9"/><path xmlns="http://www.w3.org/2000/svg" d="m343.095 317.812c-.407-3.444-3.062-6.203-6.468-6.859l-23.035-4.429c-3.037-.584-5.394-2.889-6.199-5.875-3.087-11.443-7.631-22.273-13.417-32.313-1.546-2.683-1.504-5.978.232-8.542l13.173-19.446c1.945-2.872 1.871-6.7-.276-9.423-3.757-4.765-7.753-9.4-12.151-13.798s-9.033-8.394-13.798-12.152c-2.724-2.147-6.552-2.222-9.423-.276l-19.446 13.173c-2.563 1.736-5.858 1.778-8.542.232-10.039-5.786-20.869-10.329-32.313-13.416-2.986-.806-5.29-3.163-5.875-6.199l-4.43-23.035c-.655-3.406-3.414-6.06-6.858-6.468-6.027-.712-12.13-1.164-18.349-1.164s-12.323.452-18.349 1.164c-3.444.408-6.203 3.062-6.858 6.468l-4.43 23.035c-.584 3.037-2.889 5.394-5.875 6.199-11.443 3.087-22.273 7.631-32.313 13.416-2.683 1.546-5.978 1.504-8.542-.232l-19.445-13.172c-2.872-1.945-6.7-1.871-9.423.276-4.765 3.758-9.4 7.754-13.798 12.152s-8.394 9.032-12.152 13.798c-2.147 2.723-2.221 6.551-.276 9.423l13.173 19.446c1.736 2.564 1.778 5.859.232 8.542-5.786 10.04-10.33 20.87-13.417 32.313-.805 2.986-3.163 5.291-6.199 5.875l-23.035 4.429c-3.406.655-6.06 3.414-6.468 6.859-.712 6.026-1.164 12.13-1.164 18.349s.452 12.323 1.164 18.349c.408 3.444 3.062 6.203 6.468 6.858l23.035 4.43c3.037.584 5.394 2.889 6.199 5.875 3.087 11.443 7.631 22.273 13.416 32.313 1.546 2.683 1.504 5.978-.232 8.542l-13.173 19.446c-1.945 2.871-1.871 6.699.276 9.423 3.757 4.765 7.754 9.4 12.152 13.798s9.033 8.394 13.798 12.152c2.723 2.147 6.551 2.221 9.423.276l19.445-13.173c2.564-1.737 5.859-1.778 8.542-.232 10.04 5.786 20.87 10.329 32.313 13.417 2.986.805 5.29 3.163 5.875 6.199l4.43 23.035c.655 3.406 3.414 6.061 6.858 6.468 6.026.712 12.13 1.164 18.349 1.164s12.323-.452 18.349-1.164c3.444-.408 6.203-3.062 6.858-6.468l4.43-23.035c.584-3.037 2.889-5.394 5.875-6.199 11.443-3.087 22.273-7.631 32.313-13.417 2.683-1.546 5.978-1.504 8.542.232l19.445 13.173c2.871 1.945 6.699 1.871 9.423-.276 4.765-3.757 9.4-7.753 13.798-12.151s8.394-9.033 12.152-13.798c2.147-2.724 2.221-6.552.276-9.423l-13.173-19.446c-1.737-2.563-1.778-5.859-.232-8.542 5.785-10.04 10.329-20.869 13.416-32.313.805-2.986 3.163-5.291 6.199-5.875l23.035-4.43c3.406-.655 6.061-3.414 6.468-6.859.713-6.026 1.164-12.129 1.164-18.349s-.45-12.324-1.162-18.35zm-167.175 74.462c-30.99 0-56.113-25.123-56.113-56.113 0-30.991 25.123-56.113 56.113-56.113s56.113 25.122 56.113 56.113c0 30.99-25.123 56.113-56.113 56.113z" fill="#dad8db" data-original="#dad8db"/><path xmlns="http://www.w3.org/2000/svg" d="m295.174 320.524c-6.757-53.592-50.036-96.866-103.628-103.618-34.084-4.294-65.818 5.694-90.032 24.793-6.327 4.99-15.284 4.773-20.982-.925l-23.646-23.646c-4.398 4.398-8.395 9.033-12.152 13.799-2.147 2.723-2.221 6.551-.276 9.422l13.173 19.446c1.737 2.564 1.778 5.86.232 8.543-5.785 10.039-10.33 20.869-13.416 32.312-.805 2.986-3.163 5.291-6.2 5.875l-23.035 4.429c-3.406.655-6.06 3.414-6.467 6.858-.712 6.026-1.164 12.13-1.164 18.35 0 6.219.452 12.322 1.164 18.349.407 3.444 3.062 6.204 6.468 6.859l23.035 4.43c3.037.584 5.395 2.889 6.2 5.876 3.087 11.443 7.631 22.272 13.415 32.311 1.546 2.683 1.504 5.978-.232 8.542l-13.173 19.446c-1.945 2.871-1.871 6.699.276 9.422 3.757 4.765 7.754 9.401 12.152 13.799s9.033 8.394 13.798 12.152c2.723 2.147 6.551 2.221 9.423.276l19.445-13.173c2.564-1.737 5.86-1.778 8.543-.232 10.039 5.785 20.869 10.329 32.312 13.416 2.986.806 5.284 3.127 5.868 6.164 1.182 6.148 3.198 16.629 4.443 23.103.655 3.406 3.408 6.028 6.853 6.435 6.026.712 12.129 1.164 18.349 1.164s12.323-.452 18.349-1.164c3.445-.407 6.204-3.062 6.859-6.468l4.43-23.035c.584-3.037 2.889-5.394 5.875-6.2 11.443-3.087 22.272-7.631 32.312-13.416 2.683-1.546 5.949-1.525 8.513.212l17.728 12.009c4.647 3.148 8.446 3.055 11.169.908 4.766-3.757 9.401-7.754 13.8-12.152l-23.646-23.646c-5.698-5.698-5.916-14.655-.925-20.982 19.099-24.217 29.088-55.956 24.79-90.043zm-119.254 71.75c-30.99 0-56.113-25.123-56.113-56.113 0-30.991 25.123-56.113 56.113-56.113s56.113 25.122 56.113 56.113c0 30.99-25.123 56.113-56.113 56.113z" fill="#c8c5c9" data-original="#c8c5c9"/><path xmlns="http://www.w3.org/2000/svg" d="m175.92 239.968c-53.126 0-96.194 43.067-96.194 96.194 0 53.126 43.068 96.194 96.194 96.194s96.194-43.068 96.194-96.194c0-53.128-43.068-96.194-96.194-96.194zm0 152.306c-30.99 0-56.113-25.123-56.113-56.113 0-30.991 25.123-56.113 56.113-56.113s56.113 25.122 56.113 56.113c0 30.99-25.123 56.113-56.113 56.113z" fill="#b6b1b7" data-original="#b6b1b7"/><path xmlns="http://www.w3.org/2000/svg" d="m342.721 103.687c-2.181-1.75-3.417-4.494-3.052-7.266.378-2.868.582-5.789.582-8.76s-.204-5.893-.582-8.761c-.365-2.772.871-5.516 3.052-7.266l2.31-1.854c2.699-2.165 3.661-5.8 2.513-9.065-1.573-4.477-3.548-8.876-6.008-13.136-2.46-4.261-5.282-8.17-8.372-11.772-2.254-2.626-5.882-3.61-9.107-2.356l-2.958 1.15c-2.673 1.04-5.634.489-7.922-1.242-4.462-3.379-9.351-6.215-14.576-8.422-2.64-1.115-4.596-3.402-5.032-6.234l-.482-3.131c-.526-3.42-3.192-6.071-6.594-6.709-4.664-.875-9.461-1.365-14.38-1.365s-9.716.489-14.38 1.365c-3.401.638-6.068 3.289-6.594 6.709l-.482 3.131c-.435 2.832-2.392 5.119-5.032 6.234-5.225 2.207-10.114 5.043-14.576 8.422-2.287 1.732-5.248 2.282-7.922 1.242l-2.958-1.15c-3.225-1.254-6.854-.27-9.107 2.356-3.09 3.601-5.913 7.511-8.372 11.772-2.46 4.26-4.434 8.659-6.008 13.136-1.148 3.265-.186 6.899 2.513 9.065l2.31 1.854c2.181 1.75 3.417 4.493 3.052 7.266-.378 2.868-.582 5.789-.582 8.761 0 2.971.204 5.893.582 8.76.365 2.772-.871 5.515-3.052 7.266l-2.31 1.853c-2.699 2.166-3.661 5.8-2.513 9.065 1.573 4.477 3.548 8.876 6.008 13.136s5.282 8.17 8.372 11.771c2.254 2.626 5.882 3.61 9.107 2.356l2.957-1.15c2.674-1.04 5.635-.489 7.922 1.242 4.462 3.379 9.351 6.215 14.576 8.423 2.64 1.115 4.596 3.402 5.032 6.234l.482 3.131c.526 3.42 3.192 6.07 6.594 6.709 4.664.876 9.461 1.365 14.38 1.365s9.716-.489 14.38-1.365c3.401-.639 6.068-3.289 6.594-6.709l.482-3.131c.435-2.832 2.392-5.119 5.032-6.234 5.225-2.208 10.114-5.044 14.576-8.423 2.287-1.732 5.248-2.282 7.922-1.242l2.957 1.15c3.225 1.254 6.854.271 9.107-2.356 3.09-3.601 5.913-7.511 8.372-11.771 2.46-4.261 4.434-8.66 6.008-13.136 1.148-3.265.186-6.899-2.513-9.065zm-70.607 16.039c-17.709 0-32.065-14.356-32.065-32.065s14.356-32.065 32.065-32.065 32.065 14.356 32.065 32.065c-.001 17.709-14.356 32.065-32.065 32.065z" fill="#dad8db" data-original="#dad8db"/><path xmlns="http://www.w3.org/2000/svg" d="m313.809 111.653c5.746-9.963 8.022-22.179 5.181-34.998-3.919-17.682-18.188-31.951-35.87-35.87-12.819-2.841-25.034-.564-34.998 5.181-6.497 3.747-14.604 3.099-19.907-2.204l-10.809-10.809c-2.383-.033-4.72.966-6.342 2.855-3.09 3.601-5.913 7.511-8.372 11.772-2.46 4.26-4.434 8.659-6.008 13.136-1.148 3.265-.186 6.899 2.513 9.065l2.31 1.854c2.181 1.75 3.417 4.493 3.052 7.266-.378 2.868-.582 5.789-.582 8.761 0 2.971.204 5.893.582 8.76.365 2.772-.871 5.515-3.052 7.266l-2.31 1.853c-2.699 2.166-3.661 5.8-2.513 9.065 1.573 4.477 3.548 8.876 6.008 13.136s5.282 8.17 8.372 11.771c2.254 2.626 5.882 3.61 9.107 2.356l2.957-1.15c2.672-1.039 5.631-.49 7.918 1.239 4.508 3.408 9.449 6.216 14.639 8.451 2.61 1.124 4.541 3.398 4.973 6.209l.482 3.131c.526 3.42 3.192 6.07 6.594 6.709 4.664.876 9.461 1.365 14.38 1.365s9.716-.489 14.38-1.365c3.401-.639 6.068-3.289 6.594-6.709l.482-3.131c.432-2.811 2.363-5.085 4.973-6.209 5.19-2.235 10.132-5.043 14.639-8.451 2.287-1.729 5.246-2.278 7.918-1.239l2.957 1.15c.904.352 1.836.487 2.764.5l-10.808-10.808c-5.303-5.304-5.951-13.411-2.204-19.908zm-41.695-56.056c17.709 0 32.065 14.356 32.065 32.065 0 17.708-14.356 32.065-32.065 32.065s-32.065-14.356-32.065-32.065c0-17.71 14.356-32.065 32.065-32.065z" fill="#c8c5c9" data-original="#c8c5c9"/><path xmlns="http://www.w3.org/2000/svg" d="m294.787 110.334c-12.522 12.522-32.824 12.522-45.346 0s-12.522-32.824 0-45.346l-5.092-5.093c-3.471-3.471-9.401-3.16-12.146.91-12.615 18.704-10.648 44.314 5.903 60.865 16.55 16.55 42.16 18.517 60.864 5.902 4.07-2.745 4.382-8.675.91-12.146z" fill="#b6b1b7" data-original="#b6b1b7"/><path xmlns="http://www.w3.org/2000/svg" d="m447.093 246.609c-12.522 12.522-32.824 12.522-45.346 0s-12.522-32.824 0-45.346l-5.092-5.093c-3.471-3.471-9.401-3.16-12.146.91-12.615 18.704-10.648 44.314 5.903 60.865 16.55 16.55 42.16 18.517 60.864 5.902 4.07-2.745 4.382-8.675.91-12.146z" fill="#b6b1b7" data-original="#b6b1b7"/><path xmlns="http://www.w3.org/2000/svg" d="m119.238 392.844c15.14 15.14 35.27 23.479 56.682 23.479 17.714 0 35.145-5.957 49.082-16.773 3.651-2.834 5.911-7.11 6.202-11.732.289-4.61-1.413-9.121-4.669-12.377l-5.269-5.27-.451-.451c-10.233 13.669-26.506 22.555-44.895 22.555-30.99 0-56.113-25.123-56.113-56.113 0-18.389 8.886-34.662 22.554-44.896l-.451-.451-5.269-5.269c-3.03-3.031-7.065-4.7-11.361-4.7-5.026 0-9.673 2.272-12.747 6.234-24.678 31.795-21.795 77.264 6.705 105.764z" fill="#9b959d" data-original="#9b959d"/><path xmlns="http://www.w3.org/2000/svg" d="m175.92 399.774c35.076 0 63.613-28.537 63.613-63.613s-28.537-63.613-63.613-63.613-63.613 28.537-63.613 63.613 28.537 63.613 63.613 63.613zm0-112.226c26.805 0 48.613 21.808 48.613 48.613 0 26.806-21.808 48.613-48.613 48.613s-48.613-21.808-48.613-48.613 21.808-48.613 48.613-48.613z" fill="#000000" data-original="#000000"/><path xmlns="http://www.w3.org/2000/svg" d="m343.754 304.687-29.009-5.578c-3.25-12.2-8.105-23.895-14.48-34.881l16.588-24.487c1.793-2.647 1.711-6.141-.206-8.701-5.739-7.667-10.947-13.773-16.39-19.215-5.441-5.441-11.547-10.649-19.216-16.39-2.56-1.917-6.054-1.999-8.701-.206l-24.487 16.587c-10.985-6.375-22.68-11.229-34.88-14.479l-5.578-29.009c-.604-3.141-3.133-5.552-6.298-6.007-9.481-1.363-17.482-1.999-25.177-1.999s-15.695.635-25.177 1.999c-3.165.455-5.694 2.867-6.298 6.007l-5.578 29.009c-12.2 3.25-23.895 8.105-34.88 14.479l-24.487-16.587c-2.648-1.793-6.14-1.711-8.7.205-7.666 5.738-13.772 10.946-19.216 16.39s-10.652 11.55-16.391 19.216c-1.916 2.56-1.999 6.053-.205 8.701l16.588 24.487c-6.375 10.986-11.23 22.681-14.48 34.881l-29.009 5.578c-3.14.604-5.552 3.133-6.007 6.298-1.363 9.479-1.998 17.48-1.998 25.177s.635 15.697 1.998 25.177c.456 3.165 2.867 5.694 6.007 6.297l29.009 5.579c3.25 12.2 8.105 23.894 14.48 34.88l-16.587 24.486c-1.793 2.647-1.711 6.141.205 8.701 5.738 7.666 10.946 13.771 16.391 19.216 5.444 5.444 11.55 10.652 19.216 16.39 2.56 1.917 6.053 1.999 8.701.205l24.486-16.587c10.986 6.375 22.681 11.23 34.881 14.48l5.578 29.008c.604 3.141 3.132 5.552 6.297 6.008 9.476 1.363 17.476 1.998 25.177 1.998s15.702-.635 25.177-1.998c3.165-.456 5.693-2.867 6.297-6.008l5.578-29.008c12.2-3.25 23.895-8.105 34.881-14.48l24.486 16.587c2.647 1.793 6.14 1.711 8.701-.205 7.667-5.738 13.773-10.946 19.217-16.39s10.652-11.551 16.39-19.216c1.916-2.561 1.999-6.054.205-8.701l-16.587-24.486c6.375-10.986 11.229-22.681 14.48-34.88l29.009-5.579c3.14-.604 5.552-3.132 6.007-6.297 1.363-9.48 1.998-17.48 1.998-25.177s-.635-15.697-1.998-25.177c-.456-3.166-2.868-5.694-6.008-6.298zm-8.142 49.24-28.407 5.463c-2.917.561-5.228 2.791-5.893 5.686-3.19 13.885-8.674 27.099-16.302 39.273-1.577 2.517-1.52 5.729.146 8.188l16.245 23.981c-4.046 5.148-7.847 9.47-11.75 13.374-3.903 3.903-8.225 7.703-13.374 11.75l-23.981-16.245c-2.46-1.666-5.671-1.723-8.188-.146-12.174 7.627-25.388 13.112-39.273 16.302-2.895.665-5.125 2.976-5.686 5.893l-5.463 28.407c-6.5.779-12.243 1.147-17.765 1.147s-11.265-.368-17.765-1.147l-5.463-28.407c-.561-2.917-2.791-5.228-5.686-5.893-13.885-3.19-27.099-8.675-39.273-16.302-2.517-1.577-5.729-1.52-8.188.146l-23.981 16.245c-5.148-4.045-9.469-7.847-13.373-11.75-3.904-3.904-7.704-8.225-11.751-13.374l16.245-23.981c1.666-2.459 1.724-5.671.146-8.188-7.627-12.174-13.112-25.388-16.302-39.273-.665-2.895-2.976-5.125-5.893-5.686l-28.407-5.463c-.779-6.503-1.147-12.246-1.147-17.766 0-5.519.368-11.262 1.147-17.766l28.407-5.462c2.917-.561 5.228-2.791 5.893-5.686 3.19-13.885 8.675-27.099 16.302-39.273 1.578-2.517 1.52-5.729-.146-8.188l-16.246-23.981c4.046-5.148 7.848-9.47 11.751-13.374 3.903-3.903 8.225-7.705 13.373-11.75l23.981 16.246c2.46 1.666 5.671 1.723 8.188.146 12.174-7.627 25.387-13.112 39.272-16.301 2.895-.665 5.125-2.977 5.686-5.894l5.462-28.407c6.505-.78 12.248-1.148 17.766-1.148s11.261.368 17.766 1.148l5.462 28.407c.561 2.917 2.791 5.229 5.686 5.894 13.885 3.189 27.099 8.674 39.272 16.301 2.517 1.577 5.728 1.52 8.188-.146l23.981-16.246c5.151 4.048 9.472 7.849 13.374 11.751 3.902 3.903 7.703 8.224 11.75 13.374l-16.246 23.981c-1.666 2.459-1.724 5.67-.146 8.188 7.627 12.175 13.112 25.389 16.302 39.273.665 2.896 2.976 5.125 5.893 5.686l28.407 5.462c.779 6.503 1.147 12.247 1.147 17.766.004 5.519-.364 11.262-1.143 17.765z" fill="#000000" data-original="#000000"/><path xmlns="http://www.w3.org/2000/svg" d="m227.232 263.935c3.374 2.402 8.057 1.615 10.46-1.759s1.615-8.057-1.759-10.459c-19.742-14.058-43.975-20.762-68.224-18.877-24.551 1.909-47.675 12.563-65.112 30s-28.091 40.561-30 65.111c-1.885 24.254 4.819 48.482 18.876 68.224 1.463 2.055 3.771 3.15 6.116 3.15 1.505 0 3.025-.451 4.344-1.391 3.374-2.403 4.162-7.086 1.759-10.46-25.189-35.373-21.189-83.328 9.511-114.028 30.702-30.7 78.657-34.701 114.029-9.511z" fill="#000000" data-original="#000000"/><path xmlns="http://www.w3.org/2000/svg" d="m249.906 274.389c-3.374 2.403-4.162 7.086-1.759 10.46 25.189 35.372 21.189 83.328-9.511 114.028s-78.656 34.7-114.028 9.511c-3.374-2.402-8.057-1.615-10.46 1.759s-1.615 8.057 1.759 10.46c17.558 12.503 38.664 19.188 60.182 19.188 2.676 0 5.36-.104 8.042-.312 24.551-1.909 47.674-12.562 65.111-30 17.437-17.437 28.091-40.561 30-65.111 1.885-24.254-4.818-48.482-18.876-68.224-2.403-3.374-7.086-4.161-10.46-1.759z" fill="#000000" data-original="#000000"/><path xmlns="http://www.w3.org/2000/svg" d="m187.691 110.974c2.041 7.374 4.902 14.277 8.505 20.519 3.605 6.243 8.152 12.172 13.517 17.625 2.102 2.136 5.274 2.815 8.065 1.729l8.313-3.233c5.258 4.046 10.988 7.356 17.115 9.889l1.355 8.807c.456 2.961 2.63 5.368 5.53 6.12 7.405 1.92 14.815 2.893 22.022 2.893 7.208 0 14.618-.973 22.022-2.893 2.9-.752 5.075-3.158 5.53-6.12l1.355-8.807c6.126-2.533 11.856-5.844 17.115-9.89l8.313 3.233c2.792 1.087 5.963.406 8.065-1.729 5.365-5.453 9.913-11.382 13.517-17.625 3.603-6.241 6.464-13.144 8.505-20.518.799-2.888-.197-5.975-2.535-7.85l-6.92-5.554c.445-3.327.669-6.645.669-9.909s-.225-6.582-.669-9.909l6.92-5.554c2.337-1.875 3.333-4.962 2.534-7.85-2.041-7.375-4.902-14.278-8.505-20.519-3.604-6.241-8.151-12.171-13.517-17.625-2.101-2.136-5.271-2.816-8.065-1.73l-8.313 3.233c-5.258-4.046-10.987-7.356-17.114-9.889l-1.355-8.808c-.456-2.961-2.63-5.367-5.53-6.119-7.404-1.917-14.813-2.891-22.021-2.891s-14.617.974-22.022 2.894c-2.9.752-5.075 3.158-5.53 6.119l-1.355 8.808c-6.126 2.532-11.856 5.843-17.114 9.889l-8.313-3.233c-2.793-1.087-5.964-.406-8.065 1.73-5.366 5.454-9.913 11.383-13.517 17.625-3.603 6.24-6.464 13.143-8.505 20.518-.799 2.888.197 5.975 2.534 7.85l6.92 5.554c-.445 3.327-.669 6.645-.669 9.909 0 3.265.225 6.582.669 9.909l-6.92 5.554c-2.338 1.873-3.335 4.96-2.536 7.848zm24.925-11.718c-.756-3.901-1.139-7.802-1.139-11.595s.383-7.694 1.139-11.595c.529-2.732-.499-5.533-2.669-7.275l-6.354-5.099c1.516-4.4 3.39-8.542 5.595-12.361 2.206-3.82 4.856-7.515 7.908-11.027l7.637 2.97c2.597 1.01 5.54.497 7.642-1.332 5.9-5.134 12.637-9.026 20.022-11.568 2.634-.907 4.548-3.198 4.971-5.952l1.244-8.087c4.567-.887 9.091-1.335 13.503-1.335s8.936.448 13.503 1.335l1.245 8.088c.423 2.753 2.337 5.044 4.971 5.951 7.385 2.542 14.122 6.435 20.021 11.568 2.102 1.829 5.045 2.342 7.642 1.332l7.637-2.971c3.052 3.513 5.702 7.207 7.908 11.027 2.205 3.819 4.079 7.961 5.595 12.361l-6.354 5.099c-2.171 1.742-3.199 4.543-2.669 7.275.755 3.901 1.139 7.802 1.139 11.595s-.383 7.693-1.139 11.595c-.529 2.732.499 5.533 2.669 7.275l6.354 5.099c-1.516 4.4-3.39 8.542-5.595 12.361-2.206 3.821-4.856 7.516-7.908 11.027l-7.637-2.97c-2.597-1.011-5.54-.497-7.642 1.332-5.9 5.134-12.636 9.026-20.022 11.569-2.633.907-4.548 3.198-4.971 5.951l-1.245 8.088c-4.567.887-9.091 1.335-13.503 1.335s-8.936-.448-13.503-1.335l-1.244-8.087c-.423-2.753-2.337-5.044-4.971-5.951-7.385-2.542-14.122-6.435-20.022-11.569-2.103-1.83-5.047-2.343-7.642-1.332l-7.637 2.97c-3.051-3.511-5.702-7.206-7.908-11.026-2.205-3.82-4.079-7.962-5.595-12.362l6.354-5.099c2.171-1.742 3.199-4.543 2.67-7.275z" fill="#000000" data-original="#000000"/><path xmlns="http://www.w3.org/2000/svg" d="m272.114 127.226c21.816 0 39.565-17.748 39.565-39.564 0-3.345-.42-6.672-1.248-9.888-1.033-4.012-5.123-6.426-9.133-5.393-4.012 1.033-6.426 5.122-5.394 9.133.514 1.995.774 4.063.774 6.147 0 13.545-11.02 24.564-24.565 24.564s-24.564-11.02-24.564-24.564 11.02-24.564 24.564-24.564c2.085 0 4.153.26 6.147.773 4.012 1.031 8.1-1.382 9.133-5.394s-1.382-8.101-5.394-9.133c-3.215-.828-6.541-1.247-9.886-1.247-21.816 0-39.564 17.749-39.564 39.564 0 21.818 17.749 39.566 39.565 39.566z" fill="#000000" data-original="#000000"/><path xmlns="http://www.w3.org/2000/svg" d="m507.438 217.596-8.165-3.592c-.858-6.579-2.568-12.971-5.109-19.094l5.27-7.186c1.772-2.417 1.936-5.655.417-8.238-3.879-6.595-8.43-12.522-13.526-17.618-5.096-5.097-11.023-9.647-17.618-13.526-2.582-1.519-5.821-1.355-8.238.416l-7.186 5.27c-6.123-2.542-12.515-4.251-19.094-5.109l-3.592-8.165c-1.207-2.743-3.888-4.496-6.926-4.479-7.651.063-15.06 1.04-22.021 2.905-6.96 1.865-13.865 4.723-20.522 8.494-2.607 1.477-4.085 4.364-3.759 7.343l.967 8.82c-2.667 2.038-5.172 4.226-7.48 6.534s-4.495 4.813-6.533 7.48l-8.82-.967c-2.985-.326-5.866 1.152-7.342 3.758-3.771 6.657-6.629 13.562-8.495 20.523-1.866 6.963-2.843 14.372-2.905 22.021-.024 2.996 1.737 5.719 4.48 6.926l8.164 3.592c.857 6.579 2.568 12.972 5.109 19.094l-5.27 7.186c-1.772 2.417-1.936 5.655-.417 8.238 3.878 6.594 8.429 12.521 13.526 17.618s11.025 9.647 17.618 13.526c2.583 1.519 5.822 1.355 8.238-.417l7.185-5.27c6.123 2.542 12.516 4.252 19.095 5.109l3.591 8.164c1.199 2.725 3.893 4.48 6.865 4.48h.061c7.649-.062 15.058-1.04 22.021-2.905 6.962-1.865 13.867-4.724 20.523-8.495 2.607-1.477 4.084-4.363 3.758-7.342l-.967-8.821c2.667-2.038 5.172-4.225 7.48-6.533 2.309-2.308 4.496-4.813 6.534-7.48l8.821.966c2.977.326 5.865-1.151 7.343-3.759 3.771-6.657 6.629-13.562 8.494-20.522s2.842-14.369 2.905-22.021c.025-2.995-1.736-5.718-4.48-6.924zm-12.914 25.064c-1.141 4.26-2.745 8.514-4.784 12.697l-8.099-.888c-2.761-.303-5.474.951-7.032 3.257-2.224 3.292-4.711 6.322-7.393 9.004s-5.711 5.169-9.003 7.393c-2.306 1.558-3.56 4.265-3.257 7.032l.888 8.099c-4.182 2.039-8.437 3.643-12.697 4.785-4.262 1.142-8.748 1.879-13.389 2.205l-3.299-7.5c-1.122-2.551-3.566-4.269-6.346-4.462-7.803-.542-15.318-2.553-22.338-5.977-1.043-.509-2.167-.76-3.287-.76-1.568 0-3.126.491-4.437 1.452l-6.598 4.839c-3.856-2.602-7.373-5.484-10.492-8.604s-6.001-6.636-8.604-10.492l4.839-6.599c1.647-2.246 1.914-5.22.693-7.724-3.424-7.02-5.435-14.535-5.977-22.338-.193-2.78-1.911-5.224-4.462-6.346l-7.5-3.3c.325-4.641 1.063-9.126 2.206-13.388 1.142-4.261 2.746-8.516 4.784-12.697l8.099.887c2.763.304 5.474-.951 7.032-3.257 2.224-3.292 4.711-6.321 7.393-9.003s5.711-5.169 9.004-7.394c2.306-1.558 3.561-4.265 3.257-7.032l-.888-8.098c4.183-2.04 8.437-3.644 12.697-4.785s8.746-1.879 13.388-2.205l3.3 7.501c1.122 2.55 3.565 4.269 6.345 4.461 7.803.542 15.319 2.553 22.338 5.977 2.503 1.221 5.478.954 7.723-.692l6.599-4.839c3.856 2.602 7.373 5.485 10.492 8.604 3.12 3.119 6.002 6.635 8.604 10.492l-4.839 6.599c-1.647 2.246-1.914 5.22-.693 7.723 3.424 7.019 5.435 14.535 5.977 22.338.193 2.78 1.911 5.223 4.462 6.345l7.5 3.3c-.326 4.644-1.065 9.13-2.206 13.39z" fill="#000000" data-original="#000000"/><path xmlns="http://www.w3.org/2000/svg" d="m453.565 208.654c-4.014 1.021-6.44 5.104-5.419 9.118.502 1.973.757 4.02.757 6.083 0 13.545-11.02 24.564-24.564 24.564s-24.564-11.02-24.564-24.564 11.02-24.565 24.564-24.565c2.106 0 4.195.266 6.209.79 4.009 1.044 8.104-1.362 9.146-5.37 1.043-4.009-1.361-8.104-5.37-9.146-3.247-.845-6.606-1.273-9.986-1.273-21.816 0-39.564 17.749-39.564 39.565s17.749 39.564 39.564 39.564 39.564-17.749 39.564-39.564c0-3.31-.411-6.601-1.22-9.782-1.021-4.015-5.102-6.442-9.117-5.42z" fill="#000000" data-original="#000000"/></g></svg>