<svg xmlns="http://www.w3.org/2000/svg" version="1.1" xmlns:xlink="http://www.w3.org/1999/xlink" xmlns:svgjs="http://svgjs.com/svgjs" x="0" y="0" viewBox="0 0 256 256" style="enable-background:new 0 0 512 512" xml:space="preserve"><g><g xmlns="http://www.w3.org/2000/svg" id="Layer_2"><g><circle cx="128.001" cy="230.991" fill="#71c3ea" r="20.273" data-original="#71c3ea"/><path d="m128.001 186.937c-11.196 0-20.273-9.076-20.273-20.273v-24.033c0-18.68 11.787-35.107 29.33-40.878 12.285-4.041 20.449-15.924 19.852-28.895-.678-14.752-12.765-26.839-27.517-27.517-16.597-.779-30.334 12.404-30.334 28.909 0 11.196-9.076 20.273-20.273 20.273s-20.273-9.076-20.273-20.273c0-39.611 32.963-71.241 72.742-69.412 35.466 1.633 64.526 30.691 66.157 66.156 1.429 31.081-18.179 59.566-47.686 69.274-.843.277-1.454 1.271-1.454 2.362v24.033c.001 11.198-9.075 20.274-20.271 20.274z" fill="#71c3ea" data-original="#71c3ea"/><path d="m138.273 169.164c-1.381 0-2.5-1.119-2.5-2.5v-3c0-1.381 1.119-2.5 2.5-2.5s2.5 1.119 2.5 2.5v3c0 1.381-1.119 2.5-2.5 2.5zm0-13c-1.381 0-2.5-1.119-2.5-2.5v-11.032c0-6.544 4.039-12.266 10.049-14.237 24.392-8.024 40.291-31.248 39.104-56.824-1.377-29.945-26.925-54.307-56.949-54.307-31.41 0-56.963 25.564-56.963 56.987 0 1.381-1.119 2.5-2.5 2.5s-2.5-1.119-2.5-2.5c0-34.18 27.797-61.987 61.963-61.987 33.28 0 60.452 26.652 61.944 59.076 1.273 27.874-16.032 53.085-42.539 61.806-3.955 1.297-6.61 5.109-6.61 9.486v11.032c.001 1.381-1.118 2.5-2.499 2.5z" fill="#c1e6ff" data-original="#c1e6ff"/><path d="m128 243.758c-3.416 0-6.623-1.326-9.031-3.735-.976-.977-.976-2.56 0-3.535.976-.978 2.559-.977 3.536 0 1.464 1.464 3.415 2.271 5.495 2.271 3.034 0 5.617-1.716 6.894-4.174.637-1.225 2.146-1.703 3.372-1.064 1.225.637 1.702 2.146 1.065 3.371-2.091 4.019-6.318 6.866-11.331 6.866zm6.847-16.448c-.357-.665-.812-1.275-1.35-1.814-.977-.977-.977-2.559 0-3.535.976-.977 2.56-.977 3.535 0 .884.884 1.631 1.887 2.219 2.982.654 1.217.197 2.732-1.019 3.386-1.228.658-2.737.188-3.385-1.019z" fill="#c1e6ff" data-original="#c1e6ff"/><path d="m131.37 2.344c-17.33-.99-35.996 4.855-50.63 17.569-1.062.917-1.145 2.513-.25 3.53.87 1 2.53 1.12 3.53.25l.01-.01c13.041-11.348 29.969-17.163 47.1-16.351 34.22 1.561 62.23 29.57 63.79 63.78 1.249 31.2-18.121 57.618-45.98 66.78-1.97.729-3.12 2.46-3.17 4.74v24.029c-.02 9.78-7.99 17.75-17.77 17.771-9.78-.021-17.76-7.99-17.77-17.771v-24.029c0-17.601 11.1-33.07 27.61-38.511 12.916-4.249 22.159-16.661 21.57-31.38-.765-16.07-13.821-29.134-29.9-29.899-18.416-.771-32.929 13.786-32.95 31.41-.02 9.779-7.99 17.75-17.77 17.77-9.79-.02-17.76-7.99-17.78-17.77.01-12.83 3.62-25.28 10.46-36.011.75-1.16.4-2.71-.76-3.449-1.13-.721-2.73-.36-3.45.76-7.36 11.54-11.25 24.92-11.25 38.7 0 12.55 10.22 22.77 22.78 22.77 12.55 0 22.77-10.22 22.77-22.77 0-14.936 12.473-27.113 27.71-26.421 13.5.61 24.54 11.65 25.14 25.141.584 11.654-6.954 22.734-18.13 26.399-18.58 6.11-31.05 23.5-31.05 43.261v24.029c0 12.561 10.22 22.771 22.77 22.771 12.56 0 22.77-10.21 22.77-22.771 0-.048-.005-24.064.01-24.109 31.063-10.384 50.631-40.338 49.13-71.67-1.716-36.772-31.727-66.82-68.54-68.538z" fill="#000000" data-original="#000000"/><path d="m73.45 27.243c-.01 0-.01 0-.01.011-.901 1.024-.788 2.636.26 3.52 1.043.902 2.611.793 3.53-.26.879-1.023.806-2.611-.27-3.521-1-.87-2.65-.75-3.51.25z" fill="#000000" data-original="#000000"/><path d="m143.13 217.274c.928-1.076.752-2.658-.25-3.52 0-.011-.01-.011-.01-.011-1-.87-2.66-.75-3.53.261-.9 1.04-.78 2.63.26 3.529 1.057.897 2.647.773 3.53-.259z" fill="#000000" data-original="#000000"/><path d="m146.04 221.394c-1.29.5-1.93 1.95-1.44 3.229.78 2.04 1.17 4.181 1.17 6.37-.01 9.78-7.99 17.75-17.77 17.771-9.78-.021-17.75-7.99-17.77-17.771.02-9.779 7.99-17.76 17.77-17.779 1.29 0 2.59.14 3.85.42 1.33.29 2.69-.59 2.98-1.9.308-1.334-.54-2.687-1.9-2.979-1.61-.351-3.27-.54-4.93-.54-12.55.01-22.77 10.22-22.77 22.779 0 12.551 10.22 22.771 22.77 22.771s22.77-10.22 22.77-22.771c0-2.81-.5-5.56-1.5-8.16-.48-1.251-1.98-1.921-3.23-1.44z" fill="#000000" data-original="#000000"/></g></g></g></svg>